<?xml version="1.0" encoding="UTF-8" standalone="no"?>
<svg
   viewBox="0 0 640 512"
   version="1.1"
   id="svg4"
   sodipodi:docname="microphone-slash-RECOLOURED.svg"
   inkscape:version="1.1 (c68e22c387, 2021-05-23)"
   xmlns:inkscape="http://www.inkscape.org/namespaces/inkscape"
   xmlns:sodipodi="http://sodipodi.sourceforge.net/DTD/sodipodi-0.dtd"
   xmlns="http://www.w3.org/2000/svg"
   xmlns:svg="http://www.w3.org/2000/svg">
  <defs
     id="defs8" />
  <sodipodi:namedview
     id="namedview6"
     pagecolor="#505050"
     bordercolor="#eeeeee"
     borderopacity="1"
     inkscape:pageshadow="0"
     inkscape:pageopacity="0"
     inkscape:pagecheckerboard="0"
     showgrid="false"
     inkscape:zoom="1.625"
     inkscape:cx="316.61538"
     inkscape:cy="255.69231"
     inkscape:window-width="1920"
     inkscape:window-height="1057"
     inkscape:window-x="1912"
     inkscape:window-y="-8"
     inkscape:window-maximized="1"
     inkscape:current-layer="svg4" />
  <!--! Font Awesome Free 6.1.1 by @fontawesome - https://fontawesome.com License - https://fontawesome.com/license/free (Icons: CC BY 4.0, Fonts: SIL OFL 1.1, Code: MIT License) Copyright 2022 Fonticons, Inc. -->
  <path
     d="M383.1 464l-39.1-.0001v-33.77c20.6-2.824 39.98-9.402 57.69-18.72l-43.26-33.91c-14.66 4.65-30.28 7.179-46.68 6.144C245.7 379.6 191.1 317.1 191.1 250.9V247.2L143.1 209.5l.0001 38.61c0 89.65 63.97 169.6 151.1 181.7v34.15l-40 .0001c-17.67 0-31.1 14.33-31.1 31.1C223.1 504.8 231.2 512 239.1 512h159.1c8.838 0 15.1-7.164 15.1-15.1C415.1 478.3 401.7 464 383.1 464zM630.8 469.1l-159.3-124.9c15.37-25.94 24.53-55.91 24.53-88.21V216c0-13.25-10.75-24-23.1-24c-13.25 0-24 10.75-24 24l-.0001 39.1c0 21.12-5.559 40.77-14.77 58.24l-25.72-20.16c5.234-11.68 8.493-24.42 8.493-38.08l-.001-155.1c0-52.57-40.52-98.41-93.07-99.97c-54.37-1.617-98.93 41.95-98.93 95.95l0 54.25L38.81 5.111C34.41 1.673 29.19 0 24.03 0C16.91 0 9.839 3.158 5.12 9.189c-8.187 10.44-6.37 25.53 4.068 33.7l591.1 463.1c10.5 8.203 25.57 6.328 33.69-4.078C643.1 492.4 641.2 477.3 630.8 469.1z"
     id="path2"
     style="fill:#ffffff;fill-opacity:1" />
</svg>
